<?xml version="1.0" encoding="UTF-8"?>
<!DOCTYPE svg PUBLIC "-//W3C//DTD SVG 1.1//EN" "http://www.w3.org/Graphics/SVG/1.1/DTD/svg11.dtd">
<!-- Creator: CorelDRAW X7 -->
<svg xmlns="http://www.w3.org/2000/svg" xml:space="preserve" width="58px" height="46px" version="1.1" style="shape-rendering:geometricPrecision; text-rendering:geometricPrecision; image-rendering:optimizeQuality; fill-rule:evenodd; clip-rule:evenodd"
viewBox="0 0 58 46"
 xmlns:xlink="http://www.w3.org/1999/xlink">
 <defs>
  <style type="text/css">
   <![CDATA[
    .fil0 {fill:#FFA000}
   ]]>
  </style>
 </defs>
 <g id="Camada_x0020_1">
  <metadata id="CorelCorpID_0Corel-Layer"/>
  <g id="_2457417685456">
   <polygon class="fil0" points="1,20 18,29 18,45 1,36 "/>
   <polygon class="fil0" points="18,45 57,25 57,9 18,29 "/>
   <path class="fil0" d="M1 20l17 9 39 -20 -18 -8 -38 19zm38 -16c2,0 4,1 4,2 0,1 -2,2 -4,2 -2,0 -3,-1 -3,-2 0,-1 1,-2 3,-2zm7 3c2,0 4,1 4,2 0,1 -2,2 -4,2 -2,0 -4,-1 -4,-2 0,-1 2,-2 4,-2zm-14 0c2,0 4,1 4,2 0,1 -2,2 -4,2 -2,0 -3,-1 -3,-2 0,-1 1,-2 3,-2zm7 4c2,0 4,1 4,2 0,1 -2,2 -4,2 -2,0 -3,-1 -3,-2 0,-1 1,-2 3,-2zm-13 0c2,0 3,0 3,2 0,1 -1,1 -3,1 -2,0 -4,0 -4,-1 0,-2 2,-2 4,-2zm6 3c2,0 4,1 4,2 0,1 -2,2 -4,2 -2,0 -3,-1 -3,-2 0,-1 1,-2 3,-2zm-13 0c2,0 4,1 4,2 0,1 -2,2 -4,2 -2,0 -4,-1 -4,-2 0,-1 2,-2 4,-2zm6 3c2,0 4,1 4,2 0,1 -2,2 -4,2 -2,0 -3,-1 -3,-2 0,-1 1,-2 3,-2zm-7 4c2,0 4,1 4,2 0,1 -2,2 -4,2 -2,0 -3,-1 -3,-2 0,-1 1,-2 3,-2zm-6 -3c2,0 4,0 4,1 0,2 -2,2 -4,2 -2,0 -4,0 -4,-2 0,-1 2,-1 4,-1z"/>
  </g>
 </g>
</svg>
